<svg  fill='curentColor' xmlns="http://www.w3.org/2000/svg">
    <path fill-rule="evenodd" clip-rule="evenodd" d="M2 10.3333V16C2 17.6569 3.34315 19 5 19H14C15.6302 19 16.9566 17.6998 16.999 16.0798L18.7506 17.4811C20.0601 18.5288 22 17.5964 22 15.9194V8.08062C22 6.40361 20.0601 5.47127 18.7506 6.51889L16.999 7.92021C16.9567 6.30024 15.6302 5 14 5H5C3.34314 5 2 6.34315 2 8V10.3333ZM17 10.4806V13.5194L20 15.9194V8.08063L17 10.4806ZM4 16V10.3333V8C4 7.44772 4.44772 7 5 7H14C14.5523 7 15 7.44772 15 8V16C15 16.5523 14.5523 17 14 17H5C4.44772 17 4 16.5523 4 16Z"/>
</svg>
