<svg fill="none" xmlns="http://www.w3.org/2000/svg">
<path fill-rule="evenodd" clip-rule="evenodd" d="M19.8002 38.0431L17.5881 40.2762C17.0723 40.7969 16.236 40.7969 15.7202 40.2762C15.4623 40.0158 15.3333 39.6746 15.3333 39.3334C15.3333 38.9921 15.4623 38.6509 15.7202 38.3906L17.222 36.8745L19.5589 34.5155L30.6359 23.3334L33.2485 20.696L34.2114 19.7239C34.4693 19.4635 34.8074 19.3334 35.1454 19.3334C35.4834 19.3334 35.8214 19.4635 36.0793 19.7239C36.5951 20.2446 36.5951 21.0888 36.0793 21.6095L30.1253 27.62L23.8907 33.9138L21.7778 36.0467L19.8002 38.0431Z" fill="#EC4D39"/>
<path fill-rule="evenodd" clip-rule="evenodd" d="M16.2673 38.9429L17.6075 37.5899C18.3213 38.6426 19.5206 39.3334 20.8797 39.3334H32.7669C34.92 39.3334 36.6721 37.5997 36.7279 35.4398L39.0415 37.3082C40.7712 38.7051 43.3333 37.4619 43.3333 35.2259V24.7742C43.3333 22.5382 40.7712 21.2951 39.0415 22.6919L36.7279 24.5603C36.6809 22.7401 35.4292 21.2226 33.748 20.7903L35.1454 19.3334C34.8074 19.3334 34.4693 19.4635 34.2114 19.7239L33.2485 20.696L30.6359 23.3334L19.5589 34.5155L17.222 36.8745L15.7202 38.3906C15.4623 38.6509 15.3333 38.9921 15.3333 39.3334L16.2673 38.9429ZM27.9943 23.3334L30.6359 20.6667H20.6291C18.4407 20.6667 16.6667 22.4576 16.6667 24.6667V34.5155L19.3333 32.0567L19.3459 24.6667C19.3459 23.9303 19.9372 23.3334 20.6667 23.3334H27.9943ZM20.8797 36.6667C20.2281 36.6667 19.6866 36.1904 19.5785 35.5638L31.3089 23.3334H32.7669C33.4964 23.3334 34.0877 23.9303 34.0877 24.6667V35.3334C34.0877 36.0698 33.4964 36.6667 32.7669 36.6667H20.8797ZM36.7293 27.9742V32.0259L40.6917 35.2259V24.7742L36.7293 27.9742Z" fill="#EC4D39"/>
</svg>
