<svg width="32" height="32" viewBox="13 13 32 32" fill="none" xmlns="http://www.w3.org/2000/svg">
<path fill-rule="evenodd" clip-rule="evenodd" d="M16.6666 27.7777V35.3333C16.6666 37.5424 18.4575 39.3333 20.6666 39.3333H32.6666C34.8402 39.3333 36.6088 37.5997 36.6652 35.4397L39.0008 37.3081C40.7468 38.705 43.3333 37.4618 43.3333 35.2258V24.7741C43.3333 22.5381 40.7468 21.295 39.0008 22.6918L36.6652 24.5602C36.6088 22.4003 34.8402 20.6666 32.6666 20.6666H20.6666C18.4575 20.6666 16.6666 22.4575 16.6666 24.6666V27.7777ZM36.6666 27.9741V32.0258L40.6666 35.2258V24.7741L36.6666 27.9741ZM19.3333 35.3333V27.7777V24.6666C19.3333 23.9302 19.9302 23.3333 20.6666 23.3333H32.6666C33.403 23.3333 34 23.9302 34 24.6666V35.3333C34 36.0697 33.403 36.6666 32.6666 36.6666H20.6666C19.9302 36.6666 19.3333 36.0697 19.3333 35.3333Z" fill="#00FF85"/>
</svg>
