
<svg fill="currentColor" xmlns="http://www.w3.org/2000/svg">
    <path fill-rule="evenodd" clip-rule="evenodd" d="M9.28547 16.9713C8.10434 17.1735 6.875 16.2868 6.875 14.925V14.3172C4.09534 13.7628 2 11.2999 2 8.34551V8.21698C2 4.78344 4.77157 2 8.19047 2H12.8095C16.2284 2 19 4.78344 19 8.21698C19 8.93268 18.8796 9.62012 18.658 10.26C20.6016 10.9181 22 12.7518 22 14.911C22 17.3507 20.2148 19.3748 17.875 19.7571V20.5658C17.875 21.7592 16.4956 22.4287 15.5527 21.6929L13.1435 19.8131C11.3738 19.7011 9.88648 18.5532 9.28547 16.9713ZM17.6792 12.0558C16.5499 13.4987 14.7983 14.4273 12.8306 14.4339L11.0456 15.8785C11.2649 16.9904 12.2484 17.8292 13.4286 17.8292H13.476C13.7151 17.8292 13.9472 17.909 14.1354 18.0558L15.875 19.4132V18.9062C15.875 18.3114 16.3589 17.8292 16.9559 17.8292H17.0714C18.6888 17.8292 20 16.5227 20 14.911C20 13.507 19.0049 12.3346 17.6792 12.0558ZM12.4463 12.4254C12.2384 12.4254 12.0367 12.4968 11.8748 12.6279L8.97627 14.9737C8.93556 15.0066 8.875 14.9776 8.875 14.925V13.2414C8.875 13.1491 8.85975 13.0605 8.83166 12.9778C8.79149 12.8595 8.72508 12.7535 8.63938 12.6668C8.49216 12.5177 8.28806 12.4254 8.0625 12.4254C5.81884 12.4254 4 10.5988 4 8.34551V8.21698C4 5.89274 5.87614 4.00856 8.19047 4.00856H12.8095C15.1239 4.00856 17 5.89274 17 8.21698C17 10.5412 15.1239 12.4254 12.8095 12.4254H12.4463Z" fill="white"/>
</svg>
