<svg width="80" height="25" viewBox="0 0 80 25" fill="none" xmlns="http://www.w3.org/2000/svg">
<path d="M3.22995 -0.00266769L75.7715 0.110689C77.5594 0.113488 79 1.99853 79 4.34378V19.7669C79 22.1115 77.5594 24.0045 75.7715 24L3.40275 23.7742C1.61335 23.7686 0.199476 21.8857 0.173056 19.5411L4.80161e-05 4.2309C-0.0264399 1.8852 1.44041 -0.00569293 3.22958 -0.00298376L3.22991 -0.00317383L3.22995 -0.00266769Z" fill="white" stroke="black"/>
<path d="M42.8616 2.79903C42.8519 2.87285 42.7782 2.89097 42.6826 2.90849V2.872H42.6647H42.6468L42.5931 2.95714L42.4499 2.89633L42.4678 2.95714C42.3947 2.91846 42.3125 2.82554 42.3066 2.76254L41.1072 2.78979L40.5343 2.81119L40.5522 2.89633C40.4792 2.85765 40.4512 2.74077 40.3252 2.78371C40.2446 2.81119 40.2815 2.96784 40.2912 3.01795C40.3352 3.24586 40.2873 3.48241 40.2912 3.71118C40.2998 4.22234 40.3257 4.73558 40.3347 5.24334C40.3356 5.2932 40.3005 5.33832 40.3019 5.38953C40.3116 5.75986 40.3598 6.1252 40.3553 6.49626C40.5064 6.53713 40.6285 6.65157 40.7524 6.72223C41.1145 6.92886 41.4747 7.16164 41.8075 7.39029C41.9634 7.49743 42.1856 7.71209 42.414 7.73678L42.4318 7.06787L42.3854 6.9347L42.432 6.19221L42.414 5.29223C42.5965 5.33334 42.79 5.50616 42.9203 5.60175C43.2012 5.80753 43.5338 5.98218 43.824 6.18297C43.9891 6.29729 44.1592 6.45297 44.4012 6.4841C44.3967 6.55488 44.5992 6.74923 44.7055 6.66653H44.7951L44.813 6.71518H44.7235C44.7797 6.88958 44.9981 6.7603 45.0994 6.87328L45.0636 6.86112V6.87328C45.1032 6.89943 45.1433 6.90296 45.1531 6.86112L45.2605 6.87328L45.0636 6.92193C45.2133 7.2604 45.8833 7.37253 46.1019 7.67597L46.3705 7.73678C46.4199 7.65773 46.5783 7.55654 46.6927 7.51787V7.46922L46.8001 7.43273C46.8279 7.36013 46.9236 7.35319 46.9911 7.30175C47.1762 7.16079 47.3678 7.01011 47.5694 6.88143C47.6467 6.83205 47.8408 6.76529 47.8206 6.67894C47.8035 6.60584 47.5771 6.49359 47.4992 6.43947C47.4154 6.38133 47.3157 6.29036 47.194 6.27735C47.1621 6.19112 47.0432 6.14004 46.9525 6.08227C46.7906 5.97926 46.6354 5.88245 46.4616 5.78868C46.3495 5.72824 46.2677 5.63678 46.1642 5.56843C45.8858 5.38442 45.5949 5.2071 45.335 5.01117C45.2022 4.9112 44.9037 4.6699 44.7055 4.65981C44.6737 4.52518 44.3697 4.39845 44.2415 4.29495C44.1826 4.2474 44.1336 4.20276 44.0432 4.18549V4.12468L45.5112 4.13672L46.084 4.1006L46.5674 4.13271L46.8542 4.09793L47.4446 4.0882L47.4625 4.02739L47.4088 4.01523L47.4267 3.95442C47.3683 3.96804 47.3551 3.98604 47.3551 4.02739L47.0866 3.9909L47.1045 3.96658C46.9059 3.96512 46.7153 3.94639 46.514 3.95527C46.3941 3.96062 46.4115 4.02337 46.281 3.97874L46.2989 4.02739L46.1377 3.90577H46.2093V3.89361L46.084 3.82063C46.1488 3.82963 46.3622 3.82866 46.3705 3.78415C46.4716 3.8002 46.6372 3.76481 46.6748 3.84496L46.8717 3.77199L46.8538 3.72334L47.0866 3.80847H47.194L47.1582 3.71118L47.0149 3.6382L46.8359 3.67469L46.7822 3.60172L46.8359 3.61388C46.834 3.4953 46.6972 3.39934 46.5495 3.34632L46.6748 3.55307H46.5853L46.6211 3.60172C46.564 3.60184 46.5268 3.59685 46.5137 3.6382H46.46C46.4353 3.50588 46.4272 3.47682 46.5316 3.37064L46.4242 3.3828C46.5085 3.24756 46.323 3.10916 46.1198 3.07875L46.1377 3.05443L45.905 2.872L45.6186 2.77471V2.73822L45.0994 2.75038L45.1352 2.95714C45.0579 2.97246 45.0593 3.03047 45.0457 3.07875L44.9562 3.06659L45.0457 3.15173V3.28551C45.1502 3.29098 45.1819 3.33501 45.2247 3.39497L45.1352 3.40713V3.45578H45.0099L44.8846 3.43145L44.8667 3.4801H44.8488V3.43145C44.7501 3.43145 44.6019 3.45371 44.5265 3.40713L44.437 3.41929L44.4191 3.26118H44.5623C44.5344 3.20329 44.4474 3.19539 44.3654 3.20037V3.13956L44.5802 3.11524L44.6697 3.18821V3.11524H44.6876C44.6977 3.16571 44.719 3.19162 44.7951 3.20037L44.7414 3.16389L44.7593 3.06659L44.7951 3.07875L44.813 3.01795L44.7772 3.00578L44.5802 3.01795L44.616 3.06659L44.4012 3.07875L44.3833 2.9693L44.4907 2.90849L44.5981 2.95714H44.616L44.6339 2.92065L44.6876 2.94497H44.7055L44.8846 2.82335V2.84768H44.9204V2.75038L43.8641 2.77154L42.8616 2.79903Z" fill="black"/>
<path d="M44.3117 2.73822V2.75038H44.5802L44.3117 2.73822Z" fill="#591003"/>
<path d="M44.5803 2.73822V2.75038H44.6877L44.5803 2.73822Z" fill="#9F4007"/>
<path d="M44.6877 2.73822V2.75038H44.7951L44.6877 2.73822Z" fill="#591003"/>
<path d="M44.795 2.73822V2.75038H44.9025L44.795 2.73822Z" fill="#9F4007"/>
<path d="M45.0994 2.73822V2.75038H45.2426L45.0994 2.73822ZM45.2784 2.73822V2.75038H45.368L45.2784 2.73822Z" fill="#ED5F04"/>
<path d="M45.3679 2.73822V2.75038H45.4395L45.3679 2.73822Z" fill="#F29105"/>
<path d="M45.4396 2.73822V2.75038H45.5112L45.4396 2.73822Z" fill="#9F4007"/>
<path d="M45.6186 2.73822C45.6322 2.78176 45.6838 2.78261 45.7439 2.78687L45.6186 2.73822Z" fill="#ED5F04"/>
<path d="M42.7005 2.7504V2.76256H43.0944L42.7005 2.7504Z" fill="#591003"/>
<path d="M43.0944 2.7504V2.76256H43.2376L43.0944 2.7504Z" fill="#9F4007"/>
<path d="M43.2555 2.7504V2.76256H43.3629L43.2555 2.7504Z" fill="#591003"/>
<path d="M43.3271 2.76257V2.77474L43.4166 2.76257H43.3271Z" fill="#ED5F04"/>
<path d="M43.4166 2.7504V2.76256H43.5061L43.4166 2.7504Z" fill="#591003"/>
<path d="M43.5061 2.7504V2.76256H43.5777L43.5061 2.7504Z" fill="#F29105"/>
<path d="M43.6851 2.7504V2.76256L43.9179 2.77472V2.7504H43.6851Z" fill="#9F4007"/>
<path d="M43.9178 2.7504V2.76256H44.0969L43.9178 2.7504Z" fill="#F29105"/>
<path d="M44.2759 2.7504V2.76256H44.3654L44.2759 2.7504Z" fill="#ED5F04"/>
<path d="M44.9204 2.7504L44.9562 2.84769L45.0278 2.83553V2.89634H44.9383L44.9204 3.0058L45.1352 2.95715L45.0994 2.7504H44.9204Z" fill="#ED5F04"/>
<path d="M41.1251 2.76256V2.77472H42.253L41.8949 2.76256H41.1251Z" fill="#9F4007"/>
<path d="M42.4677 2.95716L42.4498 2.89635L42.5931 2.95716L42.6826 2.87203V2.90852C42.7805 2.89538 42.872 2.87823 42.8616 2.79906L43.1122 2.77474V2.76257H42.7184L42.3113 2.79079L42.3856 2.89526L42.4677 2.95716Z" fill="#F29105"/>
<path d="M42.4678 2.76257V2.77474H42.5394L42.4678 2.76257Z" fill="#591003"/>
<path d="M42.6468 2.76257V2.77474L42.7184 2.7869L42.6468 2.76257Z" fill="#F7F603"/>
<path d="M42.7542 2.76257V2.77474H42.8079L42.7542 2.76257Z" fill="#ED5F04"/>
<path d="M43.5777 2.76257V2.77474H43.6672L43.5777 2.76257Z" fill="#F29105"/>
<path d="M40.5522 2.89634L40.5343 2.81121L40.6238 2.77472C40.5053 2.7836 40.3922 2.83954 40.5522 2.89634Z" fill="#F29105"/>
<path d="M40.5343 2.77472V2.78688H40.588L40.5343 2.77472Z" fill="#591003"/>
<path d="M40.6238 2.77472V2.78688H40.7134L40.6238 2.77472Z" fill="#9F4007"/>
<path d="M40.9998 2.77472V2.78688H41.1967L40.9998 2.77472Z" fill="#ED5F04"/>
<path d="M41.322 2.77472V2.78688H41.7517L41.322 2.77472ZM41.8591 2.77472V2.78688H41.9665L41.8591 2.77472ZM42.0739 2.77472V2.78688H42.2171L42.0739 2.77472ZM45.6902 2.78688V2.79904L45.8692 2.87201C45.8241 2.82142 45.7776 2.79491 45.6902 2.78688Z" fill="#F29105"/>
<path d="M40.2658 2.79904V2.95715H40.2837L40.2658 2.79904Z" fill="#9F4007"/>
<path d="M42.5394 2.79904C42.4674 2.83577 42.4674 2.85961 42.5394 2.89634H42.5573L42.6289 2.84769H42.6468L42.7363 2.87201C42.696 2.82397 42.6352 2.80974 42.5573 2.82337L42.5394 2.79904Z" fill="#ED5F04"/>
<path d="M44.7056 2.94498H44.6877L44.634 2.92066L44.6161 2.95715H44.5981L44.4907 2.9085L44.3833 2.96931L44.4012 3.07877L44.6161 3.0666L44.5802 3.01796L44.7772 3.00579L44.813 3.01796L44.7951 3.07877L44.7593 3.0666L44.7951 3.20038C44.727 3.18616 44.7041 3.16159 44.6877 3.11525H44.6698V3.18822L44.5802 3.11525H44.4728L44.4191 3.18822V3.13957H44.3654V3.20038C44.4481 3.1982 44.5213 3.21011 44.5623 3.26119H44.4191L44.4549 3.28552L44.437 3.4193L44.5265 3.40714C44.5794 3.46077 44.7587 3.43146 44.8488 3.43146V3.48011H44.8667L44.8846 3.43146L45.0099 3.45579H45.1352V3.40714L45.1889 3.4193L45.2247 3.39498C45.1916 3.32784 45.1544 3.28795 45.0457 3.28552V3.15174L44.9562 3.0666L45.0457 3.07877L45.0815 2.95715H45.0636L44.9204 3.00579L44.9383 2.89634H45.0278V2.83553L44.9383 2.82336L44.8846 2.84769V2.82336C44.7995 2.8393 44.7328 2.88807 44.7056 2.94498Z" fill="#F29105"/>
<path d="M42.2709 2.89633L42.2888 2.92066H42.3067L42.3246 2.89633H42.2709Z" fill="#F29105"/>
<path d="M45.4396 2.92065L45.4754 2.95714V2.9693L45.3859 2.99363L45.1531 2.94498L45.1889 3.03011H45.2963L45.1889 3.20038V3.21254L45.35 3.2247L45.3321 3.28551V3.29767L45.4396 3.27335L45.3859 3.28551C45.3739 3.23504 45.3538 3.21145 45.2784 3.20038C45.3497 3.13483 45.429 3.11877 45.547 3.11525L45.6007 3.15173L45.5828 3.23686L45.6365 3.2247L45.6544 3.30984C45.5318 3.3119 45.5115 3.33976 45.5112 3.41929L45.547 3.39497L45.6186 3.41929C45.6832 3.32066 45.7081 3.27773 45.8692 3.24903L45.8513 3.29767L45.9408 3.28551L45.8334 3.18822C45.7111 3.18956 45.7407 3.14018 45.7618 3.07876L45.8334 3.05444L45.7618 3.0666L45.726 2.94498L45.4396 2.92065ZM40.767 2.92065L40.7491 2.9693L40.8387 2.95714L40.767 2.92065Z" fill="#F29105"/>
<path d="M45.5291 2.93283V3.03013L45.6723 3.04229L45.5291 2.93283ZM40.2658 2.95715V3.0058H40.2837L40.2658 2.95715ZM45.9946 2.95715L46.1378 3.05445L46.1199 3.07877L46.2094 3.09094L45.9946 2.95715Z" fill="#ED5F04"/>
<path d="M40.6238 2.9693V2.99362H40.6596V2.9693H40.6238Z" fill="#F29105"/>
<path d="M40.2658 3.0058V3.17607H40.2837L40.2658 3.0058Z" fill="#9F4007"/>
<path d="M40.2837 3.01797V3.66256H40.3016V3.22473L40.2837 3.01797Z" fill="#F29105"/>
<path d="M44.4191 3.11526V3.18824L44.4728 3.11526H44.4191ZM45.2784 3.2004L45.3859 3.28553L45.4396 3.27337C45.4893 3.33114 45.5681 3.31229 45.6544 3.30986L45.6365 3.22472L45.5828 3.23688L45.6007 3.15175L45.547 3.11526C45.4297 3.11697 45.3368 3.12633 45.2784 3.2004ZM44.5086 3.13959V3.16391H44.5444V3.13959H44.5086Z" fill="#ED5F04"/>
<path d="M45.4216 3.17606V3.23687L45.4574 3.17606H45.4216Z" fill="#F29105"/>
<path d="M40.2658 3.21255V3.3585H40.2837L40.2658 3.21255Z" fill="#9F4007"/>
<path d="M44.7235 3.30985L44.5982 3.27336L44.634 3.32201V3.33417H44.5266V3.34633C44.6021 3.3816 44.8719 3.44047 44.8488 3.33417L44.9025 3.30985L44.9741 3.2612L44.8667 3.28552C44.8465 3.22277 44.7464 3.2702 44.7235 3.30985Z" fill="#ED5F04"/>
<path d="M46.4242 3.24902V3.26119L46.46 3.28551H46.4779L46.4242 3.24902Z" fill="#F29105"/>
<path d="M46.4779 3.2977L46.4242 3.38283L46.5316 3.37067C46.4016 3.45897 46.4265 3.51734 46.46 3.63823H46.5137V3.60175H46.6211L46.5853 3.5531H46.6748L46.5495 3.34635L46.639 3.38283C46.6046 3.33589 46.5547 3.30597 46.4779 3.2977Z" fill="#F29105"/>
<path d="M44.9562 3.37067H45.0457V3.32202L44.9562 3.37067Z" fill="#ED5F04"/>
<path d="M46.5137 3.5166L46.5495 3.44363C46.4444 3.43159 46.4323 3.47866 46.5137 3.5166Z" fill="#ED5F04"/>
<path d="M46.7465 3.45578V3.46794H46.8002L46.7465 3.45578Z" fill="#591003"/>
<path d="M45.0815 3.56525L45.171 3.48012C45.096 3.49423 45.0756 3.51223 45.0815 3.56525Z" fill="#F29105"/>
<path d="M46.8002 3.4801C46.8107 3.52145 46.8297 3.53203 46.8897 3.54091L46.8002 3.4801Z" fill="#ED5F04"/>
<path d="M46.8181 3.49228V3.5166L46.8539 3.49228H46.8181Z" fill="#591003"/>
<path d="M45.6544 3.52875V3.58956C45.7362 3.5915 45.8046 3.60208 45.8334 3.54091L45.6544 3.52875Z" fill="#F29105"/>
<path d="M40.2658 3.54092V3.65038H40.2837L40.2658 3.54092Z" fill="#9F4007"/>
<path d="M46.8359 3.54092V3.6139L46.7822 3.60173L46.8359 3.67471L46.9792 3.63822V3.62606H46.9254L46.9433 3.58957L46.9075 3.54092H46.8359Z" fill="#F29105"/>
<path d="M46.9075 3.5531V3.60175H46.9254L46.9075 3.5531Z" fill="#ED5F04"/>
<path d="M46.9255 3.62605L47.0508 3.66254L46.9792 3.58957L46.9255 3.62605Z" fill="#9F4007"/>
<path d="M47.015 3.66254V3.6747L47.1403 3.71118L47.015 3.66254Z" fill="#F29105"/>
<path d="M40.2658 3.68686L40.2479 4.07604H40.2837L40.2658 3.68686Z" fill="#591003"/>
<path d="M40.2837 3.68686V3.72334H40.3016L40.2837 3.68686ZM46.8538 3.72334L46.8718 3.77199L46.6748 3.84496C46.6526 3.75813 46.4716 3.79571 46.3705 3.78415L46.281 3.82064V3.8328L46.3347 3.88145L46.3884 3.86929V3.95442L46.1378 3.94226L46.2989 4.02739L46.281 3.97875C46.4115 4.04637 46.3913 3.96634 46.5141 3.95673C46.6474 3.94627 46.8069 3.94299 46.9434 3.94226V3.88145H46.8718L46.9792 3.84496L46.9971 3.90577L47.1224 3.89361V3.94226L47.015 3.9301C47.0266 3.96719 47.051 3.96585 47.1045 3.96658L47.0866 3.99091L47.3551 4.02739L47.4267 3.95442L47.4088 4.01523L47.4625 4.02739L47.4446 4.0882L47.373 4.11253C47.4736 4.10401 47.6559 4.14439 47.6953 4.06388L47.5341 4.01523L47.552 3.97875L47.1403 3.72334L47.194 3.80848H47.0866L46.8538 3.72334ZM40.2837 3.74767V4.11253H40.3016L40.2837 3.74767ZM46.084 3.82064C46.1084 3.86673 46.139 3.88376 46.2094 3.89361L46.2631 3.80848L46.084 3.82064Z" fill="#F29105"/>
<path d="M46.2273 3.8085L46.2094 3.9058L46.1378 3.94228L46.3884 3.95445V3.86931L46.3347 3.88147L46.2273 3.8085Z" fill="#ED5F04"/>
<path d="M47.194 3.82065L47.2298 3.88146L47.3014 3.83281L47.194 3.82065Z" fill="#F7F603"/>
<path d="M40.2658 3.84497V3.90578H40.2837L40.2658 3.84497Z" fill="#9F4007"/>
<path d="M46.8718 3.88146H46.9434C46.9436 3.91806 46.9905 4.00745 47.015 3.9301L47.1224 3.94227V3.89362L46.9971 3.90578L46.9792 3.84497L46.8718 3.88146Z" fill="#ED5F04"/>
<path d="M47.4984 3.95444L47.5521 3.97876V3.9666L47.4984 3.95444ZM47.5342 4.00309L47.5879 4.02741L47.57 3.99092L47.5342 4.00309Z" fill="#591003"/>
<path d="M46.7643 4.12471C46.8184 4.11255 46.8485 4.10258 46.836 4.13687L47.1403 4.12471C47.0567 4.10087 46.8229 4.07254 46.7643 4.12471Z" fill="#F29105"/>
<path d="M47.6953 4.0882L47.6774 4.10036L47.749 4.12468L47.6953 4.0882Z" fill="#9F4007"/>
<path d="M44.1327 4.10037V4.11253L44.3654 4.1247L44.1327 4.10037ZM44.5265 4.10037V4.11253L45.0278 4.1247L44.5265 4.10037ZM45.905 4.10037V4.11253H46.1915L45.905 4.10037Z" fill="#F29105"/>
<path d="M46.1736 4.13685L46.46 4.12469C46.3829 4.10268 46.2291 4.0876 46.1736 4.13685Z" fill="#ED5F04"/>
<path d="M40.2837 4.11255V4.22201H40.3016L40.2837 4.11255Z" fill="#9F4007"/>
<path d="M44.3654 4.11255V4.12471H44.5623V4.13687H44.5086V4.14903L44.6161 4.11255H44.3654Z" fill="#ED5F04"/>
<path d="M45.7618 4.11255L45.4753 4.13687V4.14903L46.1735 4.13687V4.11255H45.7618Z" fill="#591003"/>
<path d="M45.8155 4.11255V4.12471H45.9766L45.8155 4.11255Z" fill="#ED5F04"/>
<path d="M46.7822 4.11255V4.12471H46.8538L46.7822 4.11255Z" fill="#9F4007"/>
<path d="M47.4267 4.11255V4.12471H47.6236L47.4267 4.11255Z" fill="#591003"/>
<path d="M44.0432 4.12469V4.1855H44.0611L44.0432 4.12469Z" fill="#F29105"/>
<path d="M44.1864 4.12469V4.13685L44.5086 4.14902C44.4476 4.10146 44.2747 4.12469 44.1864 4.12469Z" fill="#591003"/>
<path d="M44.5087 4.12469V4.13686H44.5624L44.5087 4.12469ZM44.5982 4.12469V4.13686H44.7951L44.5982 4.12469Z" fill="#9F4007"/>
<path d="M44.5803 4.13687V4.14903H44.9383L44.5803 4.13687Z" fill="#591003"/>
<path d="M44.8309 4.12469V4.13686H45.0278L44.8309 4.12469Z" fill="#9F4007"/>
<path d="M46.2989 4.12469V4.13686H46.4063L46.2989 4.12469ZM47.0866 4.12469V4.13686H47.1761L47.0866 4.12469Z" fill="#9F4007"/>
<path d="M47.2119 4.12469V4.13686H47.2835L47.2119 4.12469ZM45.4216 4.13686V4.14902H45.4753L45.4216 4.13686Z" fill="#F29105"/>
<path d="M40.2837 4.22198V4.47739H40.3016L40.2837 4.22198Z" fill="#F29105"/>
<path d="M40.2658 4.29495L40.2479 4.48954H40.2658V4.29495Z" fill="#591003"/>
<path d="M40.2658 4.39226V4.46523H40.2837L40.2658 4.39226Z" fill="#9F4007"/>
<path d="M44.4191 4.40442V4.4409H44.437L44.4191 4.40442Z" fill="#ED5F04"/>
<path d="M44.437 4.40442L44.5981 4.52604L44.5265 4.42874L44.437 4.40442Z" fill="#591003"/>
<path d="M40.2658 4.47739L40.2837 4.68414H40.3016L40.2658 4.47739Z" fill="#9F4007"/>
<path d="M40.2837 4.48956V4.58686H40.3016L40.2837 4.48956Z" fill="#F29105"/>
<path d="M40.2658 4.58685L40.2479 4.85442H40.2658C40.2901 4.75822 40.3256 4.68281 40.2658 4.58685Z" fill="#591003"/>
<path d="M44.6877 4.599L44.7056 4.65981H44.7772V4.64765L44.6877 4.599Z" fill="#F29105"/>
<path d="M40.3016 4.6355V4.70847H40.3195L40.3016 4.6355Z" fill="#F29105"/>
<path d="M40.3016 4.74496V4.93956H40.3195L40.3016 4.74496ZM44.9383 4.75713V4.78145H44.9741L44.9383 4.75713Z" fill="#F29105"/>
<path d="M40.2837 4.78143L40.2658 4.86657H40.2837V4.78143Z" fill="#9F4007"/>
<path d="M40.2837 4.81793V4.90307H40.3016L40.2837 4.81793Z" fill="#ED5F04"/>
<path d="M40.2658 4.86658V5.15846H40.2837L40.2658 4.86658Z" fill="#591003"/>
<path d="M40.2837 4.95171V5.08549H40.3016L40.2837 4.95171Z" fill="#ED5F04"/>
<path d="M40.3016 5.07333V5.13414H40.3195L40.3016 5.07333Z" fill="#F29105"/>
<path d="M45.4037 5.07333V5.0855L45.5112 5.12198V5.10982L45.4037 5.07333Z" fill="#ED5F04"/>
<path d="M40.2837 5.08548V5.2071H40.3016L40.2837 5.08548Z" fill="#9F4007"/>
<path d="M45.4575 5.08548V5.09764L45.547 5.15845H45.5649L45.4575 5.08548Z" fill="#591003"/>
<path d="M45.5112 5.12198L45.547 5.18279H45.5649L45.5112 5.12198ZM40.3016 5.15846L40.3195 5.30441H40.3374L40.3016 5.15846Z" fill="#F29105"/>
<path d="M45.5649 5.15848L45.6544 5.21929V5.20713L45.5649 5.15848Z" fill="#9F4007"/>
<path d="M40.3016 5.20712V5.30442H40.3195L40.3016 5.20712Z" fill="#591003"/>
<path d="M42.4141 5.29224L42.3962 5.43818H42.4141L42.432 5.31656L42.611 5.38953C42.5623 5.33699 42.5045 5.30452 42.4141 5.29224ZM40.2837 5.31656V5.43818H40.3016L40.2837 5.31656Z" fill="#ED5F04"/>
<path d="M42.432 5.31656L42.4141 5.51115H42.432L42.4499 5.32872L42.5036 5.34088L42.432 5.31656ZM40.2658 5.34088V5.43818H40.2837L40.2658 5.34088Z" fill="#591003"/>
<path d="M45.905 5.41388V5.42604L45.9766 5.4382V5.42604L45.905 5.41388Z" fill="#F29105"/>
<path d="M40.2837 5.4382L40.2658 5.83955H40.2837V5.4382Z" fill="#591003"/>
<path d="M40.3016 5.45035V5.51116H40.3195L40.3016 5.45035Z" fill="#F29105"/>
<path d="M42.3962 5.47467V5.52332H42.4141L42.3962 5.47467ZM40.2837 5.48683V5.63278H40.3016L40.2837 5.48683Z" fill="#9F4007"/>
<path d="M40.3016 5.54764L40.2658 5.63277V5.64493L40.3553 5.87601L40.3016 5.54764Z" fill="#F29105"/>
<path d="M42.8258 5.54764V5.5598L42.8795 5.57196L42.8258 5.54764ZM42.4141 5.5598L42.432 6.75167H42.4499V5.93682L42.4141 5.5598Z" fill="#591003"/>
<path d="M46.1915 5.58414V5.60846H46.2273V5.58414H46.1915Z" fill="#F29105"/>
<path d="M46.2273 5.62061V5.63277L46.3168 5.66925L46.2273 5.62061Z" fill="#ED5F04"/>
<path d="M40.2837 5.64493V5.83952H40.3016L40.2837 5.64493ZM42.4141 5.64493V5.79087H42.432L42.4141 5.64493Z" fill="#9F4007"/>
<path d="M43.0406 5.68143L43.0765 5.70575V5.68143H43.0406Z" fill="#F29105"/>
<path d="M43.0585 5.70575V5.71791L43.1122 5.7544L43.0585 5.70575Z" fill="#9F4007"/>
<path d="M46.4958 5.80304V5.8152L46.6032 5.85169L46.4958 5.80304Z" fill="#F29105"/>
<path d="M46.6032 5.82736C46.6263 5.8827 46.6802 5.91639 46.7643 5.92466V5.9125L46.6032 5.82736Z" fill="#591003"/>
<path d="M40.3195 5.87601V6.10708H40.3374L40.3195 5.87601Z" fill="#591003"/>
<path d="M40.3374 5.87601V6.04627H40.3553L40.3374 5.87601ZM42.4141 5.87601V5.98546H42.432L42.4141 5.87601Z" fill="#9F4007"/>
<path d="M43.5061 5.97331C43.5962 6.10953 43.8246 6.2472 44.0074 6.32601C43.9248 6.21169 43.6597 6.0475 43.5061 5.97331Z" fill="#591003"/>
<path d="M42.4141 6.0463V6.11927H42.432L42.4141 6.0463ZM40.3374 6.07062V6.1071H40.3553L40.3374 6.07062Z" fill="#9F4007"/>
<path d="M40.3553 6.07062V6.2044H40.3732L40.3553 6.07062Z" fill="#F29105"/>
<path d="M46.9434 6.08276V6.09493L46.9971 6.10709L46.9434 6.08276Z" fill="#ED5F04"/>
<path d="M42.4319 6.13141V6.20438H42.4498L42.4319 6.13141Z" fill="#9F4007"/>
<path d="M47.0329 6.13141V6.14357L47.1224 6.16789V6.15573L47.0329 6.13141Z" fill="#591003"/>
<path d="M40.3553 6.20438V6.26519H40.3732L40.3553 6.20438ZM42.432 6.24086V6.27735H42.4499L42.432 6.24086Z" fill="#9F4007"/>
<path d="M40.3374 6.2652V6.48411H40.3553L40.3374 6.2652Z" fill="#591003"/>
<path d="M40.3553 6.2652V6.41114H40.3732L40.3553 6.2652ZM42.4141 6.27736V6.80032V6.98275C42.3781 6.77211 42.5394 6.48034 42.4141 6.27736Z" fill="#F29105"/>
<path d="M47.4625 6.39899L47.749 6.59358C47.6915 6.51842 47.5757 6.43535 47.4625 6.39899Z" fill="#591003"/>
<path d="M40.3374 6.42329V6.45978H40.3553L40.3374 6.42329ZM44.2759 6.47194V6.4841L44.437 6.5814L44.4012 6.4841L44.2759 6.47194Z" fill="#F29105"/>
<path d="M44.3117 6.48413L44.3475 6.53278H44.3654L44.3117 6.48413Z" fill="#9F4007"/>
<path d="M44.7055 6.66653L44.5981 6.69086L44.7413 6.77599L44.7234 6.71518H44.813L44.7951 6.66653L44.7593 6.69086L44.7055 6.66653Z" fill="#F29105"/>
<path d="M42.432 6.78818L42.4141 6.99493H42.432V6.78818Z" fill="#591003"/>
<path d="M44.8667 6.83681V6.84897L45.0815 6.97059L45.0636 6.92194L45.2605 6.8733L45.1531 6.86113L45.1352 6.89762L45.0636 6.86113L45.0994 6.8733C45.0564 6.79996 44.9585 6.81796 44.8667 6.83681Z" fill="#F29105"/>
<path d="M44.8667 6.84897V6.86113L44.9562 6.88546V6.87329L44.8667 6.84897Z" fill="#9F4007"/>
<path d="M47.5699 6.87329V6.89761L47.6058 6.87329H47.5699Z" fill="#591003"/>
<path d="M47.5341 6.88547V6.92195H47.552L47.5699 6.88547H47.5341Z" fill="#F29105"/>
<path d="M42.3962 6.92194V6.97058H42.4141L42.3962 6.92194Z" fill="#9F4007"/>
<path d="M47.4446 6.98277H47.4625L47.5342 6.93412C47.4772 6.92597 47.4602 6.94762 47.4446 6.98277Z" fill="#ED5F04"/>
<path d="M45.0457 6.9706V6.99492H45.0994V6.9706H45.0457Z" fill="#591003"/>
<path d="M42.4319 7.04358V7.22601H42.4498L42.4319 7.04358Z" fill="#9F4007"/>
<path d="M42.414 7.14086V7.50572H42.432L42.414 7.14086Z" fill="#F29105"/>
<path d="M47.0508 7.23816V7.26248L47.0866 7.23816H47.0508Z" fill="#9F4007"/>
<path d="M42.4319 7.25031V7.48138H42.4498L42.4319 7.25031Z" fill="#591003"/>
<path d="M45.4396 7.25031V7.26247H45.4933L45.4396 7.25031Z" fill="#9F4007"/>
<path d="M46.9792 7.2868V7.32329H46.9971L47.015 7.2868H46.9792Z" fill="#F29105"/>
<path d="M45.6007 7.34763V7.35979L45.6544 7.37195L45.6007 7.34763Z" fill="#9F4007"/>
<path d="M46.8001 7.43274L46.9255 7.35976C46.8474 7.34249 46.8103 7.38494 46.8001 7.43274Z" fill="#F29105"/>
<path d="M45.7618 7.44492V7.45708L45.8155 7.46924L45.7618 7.44492Z" fill="#9F4007"/>
<path d="M46.6927 7.46924V7.50572H46.7107L46.7286 7.46924H46.6927Z" fill="#F29105"/>
<path d="M42.4319 7.53003V7.63949H42.4498L42.4319 7.53003Z" fill="#9F4007"/>
<path d="M46.5674 7.56653L46.5495 7.61518H46.5674L46.6032 7.56653H46.5674Z" fill="#ED5F04"/>
<path d="M42.4141 7.5787V7.73681L42.3246 7.72465V7.73681C42.4585 7.75749 42.4517 7.63964 42.4141 7.5787Z" fill="#F29105"/>
<path d="M46.46 7.62735V7.676H46.4779L46.5137 7.63951L46.46 7.62735Z" fill="#ED5F04"/>
<path d="M46.4421 7.6395L46.3705 7.73679H46.3884L46.4421 7.6395Z" fill="#F29105"/>
<path d="M46.4779 7.6395V7.66382L46.5137 7.6395H46.4779ZM42.4319 7.66382V7.77328H42.4498L42.4319 7.66382Z" fill="#591003"/>
<path d="M46.1556 7.67599C46.1852 7.74337 46.2586 7.74836 46.3526 7.74897V7.7368L46.1556 7.67599Z" fill="#F29105"/>
<path d="M46.4242 7.67599V7.70032L46.46 7.67599H46.4242Z" fill="#9F4007"/>
<path d="M42.3425 7.74896V7.76112L42.432 7.77329L42.3425 7.74896Z" fill="#ED5F04"/>
<path d="M46.2273 7.74896V7.76112H46.3347L46.2273 7.74896Z" fill="#9F4007"/>
<path d="M46.2452 7.76111V7.77327H46.3347L46.2452 7.76111ZM40.409 9.19622L40.4448 9.20838H40.4627L40.4448 9.15973L40.409 9.19622Z" fill="#591003"/>
<path d="M40.4269 9.18408L40.4448 9.23273H40.4627L40.4269 9.18408Z" fill="#9F4007"/>
<path d="M40.4985 9.2084L40.5343 9.23273V9.2084H40.4985Z" fill="#9F4007"/>
<path d="M4.17489 1.40832L74.8421 1.52177C76.0052 1.52357 76.9407 2.7804 76.9407 4.34383V19.767C76.9407 21.3304 76.0052 22.5924 74.8421 22.589L4.34271 22.3632C3.18024 22.3587 2.26186 21.1035 2.24474 19.5412L2.07659 4.23094C2.05931 2.6673 3.01208 1.40651 4.17405 1.40843L4.17439 1.40787L4.17489 1.40832Z" fill="#006B54"/>
<path d="M15.0766 20.2632V18.1027H8.82774V12.2677H12.7745V10.0589H8.82774V5.78787H14.7467V3.62735H5.72107V20.2632H15.0766Z" fill="white"/>
<path d="M28.9779 20.2632L24.8484 11.747L28.7952 3.62735H25.4702L23.2037 8.24669L21.0843 3.62735H17.6477L21.5945 11.747L17.465 20.2632H20.828L23.2037 15.2473L25.6149 20.2632H28.9779Z" fill="white"/>
<path d="M35.9527 20.2632V3.62735H32.8461V20.2632H35.9527Z" fill="white"/>
<path d="M48.7246 5.78787V3.62735H39.4401V5.78787H42.4377V20.2632H45.5443V5.78787H48.7246Z" fill="white"/>
<path d="M72.6148 10.2663C72.3477 10.2501 72.2822 10.1268 72.2188 9.96732H72.3509V9.9374V9.90748L72.0428 9.81785L72.2629 9.57874L72.0428 9.60854C72.1828 9.48656 72.5187 9.34937 72.7469 9.33952L72.6485 7.33669L72.571 6.38015L72.2629 6.41004C72.4029 6.28805 72.8257 6.24148 72.6701 6.03094C72.5708 5.89647 72.004 5.95818 71.8228 5.97433C70.9982 6.0479 70.1423 5.96777 69.3147 5.97417C67.4654 5.98846 65.6086 6.03195 63.7711 6.04694C63.591 6.0484 63.4279 5.98978 63.2424 5.99199C61.9026 6.00816 60.5805 6.08879 59.2382 6.08122C59.0903 6.33346 58.6762 6.53729 58.4204 6.74436C57.6732 7.34904 56.8298 7.95031 56.0027 8.50602C55.616 8.76629 54.8391 9.13747 54.7495 9.51887L57.1699 9.54854L57.6519 9.4712L60.3383 9.54867L63.5944 9.51887C63.4456 9.82353 62.8203 10.1467 62.4746 10.3644C61.7302 10.8333 61.0981 11.3888 60.3714 11.8732C59.958 12.1488 59.395 12.433 59.2822 12.837C59.0262 12.8296 58.323 13.1675 58.6222 13.3451V13.4946L58.4462 13.5245V13.3751C57.8151 13.4688 58.2827 13.8337 57.8742 14.0029L57.9181 13.943H57.8742C57.7795 14.0091 57.7668 14.0761 57.9181 14.0925L57.8742 14.2719L57.6981 13.943C56.4735 14.193 56.0672 15.3117 54.9697 15.6768L54.7495 16.1252C55.036 16.2076 55.4012 16.4723 55.5426 16.6633H55.7181L55.8505 16.8427C56.1119 16.8889 56.1388 17.0488 56.3232 17.1616C56.8334 17.4708 57.3794 17.7906 57.8449 18.1271C58.0235 18.2561 58.265 18.5804 58.5774 18.5467C58.8418 18.5181 59.248 18.1401 59.4437 18.0101C59.6542 17.8701 59.9831 17.7037 60.0302 17.5003C60.3421 17.4471 60.5272 17.2485 60.7359 17.0971C61.1086 16.8267 61.459 16.5676 61.7982 16.2774C62.0168 16.0903 62.3478 15.9536 62.5951 15.7808C63.2608 15.3159 63.9025 14.8304 64.6114 14.3961C64.973 14.1746 65.8459 13.6761 65.8825 13.3451C66.3696 13.292 66.8282 12.7842 67.2026 12.5703C67.3748 12.4719 67.5363 12.3899 67.5986 12.2391H67.8186L67.7749 14.6904L67.906 15.6469L67.7898 16.454L67.9156 16.9328L67.9507 17.9188L68.1706 17.9487L68.2146 17.859L68.4346 17.8888C68.3856 17.7914 68.32 17.7694 68.1706 17.7693L68.3027 17.3209L68.3908 17.3508C68.3961 17.0193 68.4634 16.7009 68.4314 16.365C68.4122 16.1648 68.1851 16.1937 68.3467 15.9758L68.1706 16.0056L68.6106 15.7365V15.8562H68.6546L68.9187 15.6469C68.8859 15.7553 68.8897 16.1115 69.0506 16.1252C68.9928 16.294 69.1208 16.5706 68.8306 16.6334L69.0947 16.9622L69.2707 16.9323L68.9627 17.3209V17.5003L69.3147 17.4404L69.5788 17.2013L69.4466 16.9024L69.7107 16.8128L69.6667 16.9024C70.0956 16.8992 70.4431 16.6707 70.6348 16.4242L69.8867 16.6334V16.4839L69.7107 16.5437C69.7102 16.4483 69.7284 16.3861 69.5788 16.3643V16.2747C70.0576 16.2334 70.1627 16.22 70.5467 16.3943L70.5027 16.2149C70.992 16.3557 71.4927 16.0459 71.6028 15.7067L71.6909 15.7365L72.3509 15.348L72.7029 14.8696H72.8348L72.7908 14.0029L72.0428 14.0626C71.9873 13.9335 71.7773 13.9358 71.6028 13.9131L71.6468 13.7636L71.3387 13.9131H70.8548C70.8351 14.0879 70.6756 14.1405 70.4588 14.212L70.4148 14.0626H70.2388V13.8534L70.3267 13.6441L70.1507 13.6142V13.5844H70.3267C70.3267 13.4195 70.2463 13.1721 70.4148 13.0462L70.3708 12.8967L70.9427 12.8669V13.106C71.1524 13.0592 71.1807 12.914 71.1628 12.7772H71.3828L71.4709 13.136L71.2068 13.2854H71.4709V13.3152C71.2883 13.332 71.1946 13.3675 71.1628 13.4946L71.2949 13.405L71.6468 13.4349L71.6028 13.4946L71.8228 13.5245L71.8669 13.4647L71.8228 13.136L71.6468 13.1957L71.6028 12.837L71.9988 12.8071L72.2188 12.9865L72.0428 13.1658V13.1957L72.1748 13.2256L72.0869 13.3152V13.3451L72.5269 13.6441H72.4388V13.7039H72.7908L72.7144 11.9402L72.6148 10.2662V10.2663Z" fill="white"/>
</svg>
