<svg  xmlns="http://www.w3.org/2000/svg">
  <rect width="86" height="44" fill="#EC4D39"/>
  <path d="M19.5254 28V18.1973H22.6357C23.5837 18.1973 24.3333 18.4046 24.8848 18.8193C25.4408 19.234 25.7188 19.7741 25.7188 20.4395C25.7188 20.9954 25.5615 21.4785 25.2471 21.8887C24.9326 22.2988 24.4974 22.5905 23.9414 22.7637V22.791C24.6159 22.8685 25.1536 23.1191 25.5547 23.543C25.9603 23.9622 26.1631 24.5091 26.1631 25.1836C26.1631 26.0221 25.8327 26.7012 25.1719 27.2207C24.5111 27.7402 23.6771 28 22.6699 28H19.5254ZM21.1455 19.5029V22.292H22.1982C22.7633 22.292 23.2054 22.1598 23.5244 21.8955C23.848 21.6266 24.0098 21.2484 24.0098 20.7607C24.0098 19.9222 23.4492 19.5029 22.3281 19.5029H21.1455ZM21.1455 23.5977V26.7012H22.5332C23.1393 26.7012 23.6064 26.5622 23.9346 26.2842C24.2673 26.0016 24.4336 25.6143 24.4336 25.1221C24.4336 24.1058 23.7295 23.5977 22.3213 23.5977H21.1455ZM37.251 28H35.6309V18.1973H37.251V28ZM27.9883 28V18.1973H29.6084V22.1416H31.2832C32.3223 22.1416 33.1312 22.3831 33.71 22.8662C34.2887 23.3493 34.5781 24.0374 34.5781 24.9307C34.5781 25.8786 34.2728 26.6283 33.6621 27.1797C33.056 27.7266 32.2288 28 31.1807 28H27.9883ZM29.6084 23.4609V26.6738H31.0166C31.609 26.6738 32.0648 26.5303 32.3838 26.2432C32.7074 25.9561 32.8691 25.555 32.8691 25.04C32.8691 23.9873 32.2516 23.4609 31.0166 23.4609H29.6084ZM47.9902 28H46.4248V21.4717C46.4248 20.8838 46.4476 20.4691 46.4932 20.2275H46.4521C46.3747 20.4326 46.279 20.6217 46.165 20.7949L41.4619 28H39.6777V18.1973H41.25V24.4316C41.25 25.1471 41.2318 25.6143 41.1953 25.833H41.2227C41.3138 25.6507 41.4323 25.4502 41.5781 25.2314L46.1172 18.1973H47.9902V28ZM46.5684 15.0938C46.4954 15.7773 46.2129 16.3174 45.7207 16.7139C45.2331 17.1058 44.6201 17.3018 43.8818 17.3018C43.1253 17.3018 42.5078 17.1058 42.0293 16.7139C41.5553 16.3174 41.2956 15.7773 41.25 15.0938H42.5693C42.6331 15.9232 43.0775 16.3379 43.9023 16.3379C44.2669 16.3379 44.5677 16.2285 44.8047 16.0098C45.0462 15.791 45.1943 15.4857 45.249 15.0938H46.5684ZM56.7129 19.5781H53.8965V28H52.2695V19.5781H49.46V18.1973H56.7129V19.5781ZM66.4609 28H64.8955V21.4717C64.8955 20.8838 64.9183 20.4691 64.9639 20.2275H64.9229C64.8454 20.4326 64.7497 20.6217 64.6357 20.7949L59.9326 28H58.1484V18.1973H59.7207V24.4316C59.7207 25.1471 59.7025 25.6143 59.666 25.833H59.6934C59.7845 25.6507 59.903 25.4502 60.0488 25.2314L64.5879 18.1973H66.4609V28Z" fill="white"/>
</svg>
