<svg width="24" height="24" viewBox="0 0 24 24" fill="none" xmlns="http://www.w3.org/2000/svg">
<path fill-rule="evenodd" clip-rule="evenodd" d="M22 19L22 5C22 3.34315 20.6569 2 19 2L5 2C3.34315 2 2 3.34314 2 5L2 19C2 20.6569 3.34314 22 5 22L19 22C20.6569 22 22 20.6569 22 19ZM19 4C19.5523 4 20 4.44772 20 5L20 19C20 19.5523 19.5523 20 19 20L5 20C4.44771 20 4 19.5523 4 19L4 5C4 4.44771 4.44772 4 5 4L19 4ZM18 12C18 11.1716 17.3284 10.5 16.5 10.5L7.5 10.5C6.67157 10.5 6 11.1716 6 12C6 12.8284 6.67157 13.5 7.5 13.5L16.5 13.5C17.3284 13.5 18 12.8284 18 12ZM12.5 15.5C13.3284 15.5 14 16.1716 14 17C14 17.8284 13.3284 18.5 12.5 18.5L7.5 18.5C6.67157 18.5 6 17.8284 6 17C6 16.1716 6.67157 15.5 7.5 15.5L12.5 15.5ZM12 7.5C12 6.67157 11.3284 6 10.5 6L7.5 6C6.67157 6 6 6.67157 6 7.5C6 8.32843 6.67157 9 7.5 9L10.5 9C11.3284 9 12 8.32843 12 7.5Z" fill="white"/>
</svg>
