<svg width="18" height="18" viewBox="0 0 18 18" fill="none" xmlns="http://www.w3.org/2000/svg">
<path fill-rule="evenodd" clip-rule="evenodd" d="M16.5015 5.23315C16.5015 5.64741 16.1658 5.98323 15.7516 5.98323C15.3374 5.98323 15.0017 5.64741 15.0017 5.23315L15.0017 4.03944L11.7352 7.26058C11.4402 7.55142 10.9654 7.54804 10.6746 7.25304C10.3839 6.95804 10.3873 6.48312 10.6822 6.19228L13.9228 2.9967L12.7658 2.9967C12.3516 2.99669 12.0158 2.66087 12.0158 2.2466C12.0158 1.83234 12.3516 1.49652 12.7658 1.49652L15.7516 1.49654C16.1658 1.49654 16.5015 1.83237 16.5015 2.24663L16.5015 5.23315ZM1.50098 5.23379C1.50098 5.64797 1.8368 5.98372 2.25105 5.98372C2.66531 5.98372 3.00113 5.64797 3.00113 5.2338L3.00113 4.0584L6.20043 7.25704C6.49336 7.5499 6.96828 7.5499 7.2612 7.25703C7.55413 6.96417 7.55413 6.48935 7.2612 6.19648L4.06189 2.99784L5.23756 2.99784C5.65182 2.99783 5.98764 2.66208 5.98764 2.24791C5.98763 1.83374 5.65181 1.49799 5.23755 1.49799L2.25105 1.49801C1.8368 1.49801 1.50098 1.83376 1.50098 2.24793L1.50098 5.23379ZM15.7514 12.0135C16.1655 12.0135 16.5013 12.3493 16.5013 12.7636L16.5013 15.7501C16.5013 16.1644 16.1655 16.5002 15.7514 16.5002L12.7655 16.5002C12.3514 16.5002 12.0156 16.1644 12.0156 15.7501C12.0156 15.3359 12.3513 15 12.7655 15L13.9409 15L10.6783 11.7366C10.3854 11.4437 10.3854 10.9688 10.6783 10.6759C10.9711 10.3829 11.4459 10.3829 11.7388 10.6759L15.0014 13.9392L15.0014 12.7636C15.0014 12.3493 15.3372 12.0135 15.7514 12.0135ZM1.50122 12.7629C1.50122 12.3488 1.83704 12.013 2.2513 12.013C2.66556 12.013 3.00138 12.3488 3.00138 12.7629L3.00138 13.92L6.19682 10.6794C6.48766 10.3845 6.96257 10.3811 7.25757 10.6719C7.55256 10.9627 7.55594 11.4375 7.26511 11.7324L4.04409 14.9989L5.23781 14.9989C5.65207 14.9989 5.98789 15.3346 5.98788 15.7488C5.98788 16.163 5.65206 16.4987 5.2378 16.4987L2.2513 16.4987C1.83704 16.4987 1.50123 16.163 1.50123 15.7488L1.50122 12.7629Z" fill="white"/>
</svg>
