<svg fill="currentColor" xmlns="http://www.w3.org/2000/svg">
    <path d="M18.9281 31.6892C18.9631 31.6892 18.9981 31.6892 19.033 31.6542C20.2576 31.3742 21.3422 31.0241 22.3219 30.639C26.0655 29.0286 29.0744 25.9829 30.6489 22.237L13.4351 22.272L18.9281 31.6892Z"/>
    <path d="M3.53369 26.0528C6.47263 29.6586 10.951 32.0042 15.9542 32.0042C16.584 32.0042 17.2138 31.9692 17.8435 31.8992L9.20165 16.8456L3.53369 26.0528Z"/>
    <path d="M1.1196 10.1591C0.384862 11.9795 0 13.94 0 16.0055C0 19.4013 1.04962 22.552 2.86897 25.1076L12.2106 10.3341L1.1196 10.1591Z" />
    <path d="M14.1698 0.146667C8.57185 0.776818 3.81356 4.31266 1.50439 9.21383L19.0331 9.5289L14.1698 0.146667Z" />
    <path d="M31.0338 21.2568C31.5936 19.6114 31.9085 17.8609 31.9085 16.0055C31.9085 12.9598 31.0338 10.0891 29.5643 7.67352L19.8728 21.3268L31.0338 21.2568Z" />
    <path d="M28.9345 6.69321C26.0305 2.66725 21.3072 0.041626 15.9541 0.041626C15.7092 0.041626 15.4993 0.041626 15.2544 0.0766343L23.0916 15.2352L28.9345 6.69321Z" />
</svg>
