<svg  fill="currentColor" xmlns="http://www.w3.org/2000/svg">
<path fill-rule="evenodd" clip-rule="evenodd" d="M34 31.3333C34.7364 31.3333 35.3334 30.7364 35.3334 30C35.3334 29.2636 34.7364 28.6667 34 28.6667L16.6667 28.6667L14 28.6667L10 28.6667C9.26364 28.6667 8.66669 29.2636 8.66669 30C8.66669 30.7364 9.26364 31.3333 10 31.3333L14 31.3333L16.6667 31.3333L34 31.3333ZM35.3334 14C35.3334 14.7364 34.7364 15.3333 34 15.3333L16.6667 15.3333L14 15.3333L10 15.3333C9.26364 15.3333 8.66669 14.7364 8.66669 14C8.66669 13.2636 9.26364 12.6667 10 12.6667L14 12.6667L16.6667 12.6667L34 12.6667C34.7364 12.6667 35.3334 13.2636 35.3334 14ZM8.66669 22C8.66669 22.7364 9.26364 23.3333 10 23.3333L27.3334 23.3333L30 23.3333L34 23.3333C34.7364 23.3333 35.3334 22.7364 35.3334 22C35.3334 21.2636 34.7364 20.6667 34 20.6667L30 20.6667L27.3334 20.6667L10 20.6667C9.26364 20.6667 8.66669 21.2636 8.66669 22Z" />
</svg>
