<svg  xmlns="http://www.w3.org/2000/svg">
<path fill-rule="evenodd" clip-rule="evenodd"
      d="M8 6L8 11C8 11.4744 8.08257 11.9294 8.23413 12.3517L10 10.5858L10 6C10 4.89543 10.8954 4 12 4C13.1046 4 14 4.89543 14 6V6.58579L15.8094 4.7764C15.2924 3.16576 13.7824 2 12 2C9.79086 2 8 3.79086 8 6ZM6 11C6 12.036 6.26256 13.0106 6.72475 13.861L5.26562 15.3202C4.46463 14.0741 4 12.5913 4 11C4 10.4477 4.44771 10 5 10C5.55229 10 6 10.4477 6 11ZM8.18272 18.0323L6.50789 19.7071C6.11736 20.0976 5.4842 20.0976 5.09367 19.7071C4.70315 19.3166 4.70315 18.6834 5.09367 18.2929L19.0937 4.29289C19.4842 3.90237 20.1174 3.90237 20.5079 4.29289C20.8984 4.68342 20.8984 5.31658 20.5079 5.70711L16 10.215V11C16 13.2091 14.2091 15 12 15C11.7541 15 11.5133 14.9778 11.2797 14.9353L9.67999 16.535C10.3937 16.8345 11.1775 17 12 17C15.3137 17 18 14.3137 18 11C18 10.4477 18.4477 10 19 10C19.5523 10 20 10.4477 20 11C20 15.0796 16.9463 18.446 13 18.9381V21C13 21.5523 12.5523 22 12 22C11.4477 22 11 21.5523 11 21V18.9381C9.99043 18.8122 9.03928 18.4982 8.18272 18.0323Z" fill="red"/>
</svg>
