<svg fill='currentColor' xmlns="http://www.w3.org/2000/svg">
    <path fill-rule="evenodd" clip-rule="evenodd" d="M8 6L8 11C8 13.2091 9.79086 15 12 15C14.2091 15 16 13.2091 16 11L16 6C16 3.79086 14.2091 2 12 2C9.79086 2 8 3.79086 8 6ZM12 4C13.1046 4 14 4.89543 14 6L14 11C14 12.1046 13.1046 13 12 13C10.8954 13 10 12.1046 10 11L10 6C10 4.89543 10.8954 4 12 4ZM19 10C18.4477 10 18 10.4477 18 11C18 14.3137 15.3137 17 12 17C8.68629 17 6 14.3137 6 11C6 10.4477 5.55229 10 5 10C4.44771 10 4 10.4477 4 11C4 15.0796 7.05369 18.446 11 18.9381V21C11 21.5523 11.4477 22 12 22C12.5523 22 13 21.5523 13 21V18.9381C16.9463 18.446 20 15.0796 20 11C20 10.4477 19.5523 10 19 10Z" />
</svg>
