<svg width="32" height="32" viewBox="13 13 32 32" fill="none" xmlns="http://www.w3.org/2000/svg">
<path fill-rule="evenodd" clip-rule="evenodd" d="M24.6667 22L24.6667 28.6666C24.6667 31.6121 27.0545 34 30 34C32.9456 34 35.3334 31.6121 35.3334 28.6666L35.3334 22C35.3334 19.0544 32.9456 16.6666 30 16.6666C27.0545 16.6666 24.6667 19.0544 24.6667 22ZM30 19.3333C31.4728 19.3333 32.6667 20.5272 32.6667 22L32.6667 28.6666C32.6667 30.1394 31.4728 31.3333 30 31.3333C28.5273 31.3333 27.3334 30.1394 27.3334 28.6666L27.3334 22C27.3334 20.5272 28.5273 19.3333 30 19.3333ZM39.3334 27.3333C38.597 27.3333 38 27.9302 38 28.6666C38 33.0849 34.4183 36.6666 30 36.6666C25.5818 36.6666 22 33.0849 22 28.6666C22 27.9302 21.4031 27.3333 20.6667 27.3333C19.9303 27.3333 19.3334 27.9302 19.3334 28.6666C19.3334 34.1061 23.405 38.5946 28.6667 39.2508V42C28.6667 42.7363 29.2637 43.3333 30 43.3333C30.7364 43.3333 31.3334 42.7363 31.3334 42V39.2508C36.5951 38.5946 40.6667 34.1061 40.6667 28.6666C40.6667 27.9302 40.0698 27.3333 39.3334 27.3333Z" fill="#00FF85"/>
</svg>
