<svg width="18" height="18" viewBox="0 0 18 18" fill="none" xmlns="http://www.w3.org/2000/svg">
<path fill-rule="evenodd" clip-rule="evenodd" d="M16.875 3.4875L16.875 14.5125C16.875 15.8173 15.8173 16.875 14.5125 16.875L3.4875 16.875C2.18273 16.875 1.125 15.8173 1.125 14.5125L1.125 3.4875C1.125 2.18273 2.18273 1.125 3.4875 1.125L14.5125 1.125C15.8173 1.125 16.875 2.18273 16.875 3.4875ZM15.3 3.4875C15.3 3.05258 14.9474 2.7 14.5125 2.7L3.4875 2.7C3.05258 2.7 2.7 3.05258 2.7 3.4875L2.7 14.5125C2.7 14.9474 3.05258 15.3 3.4875 15.3L14.5125 15.3C14.9474 15.3 15.3 14.9474 15.3 14.5125L15.3 3.4875Z" fill="white"/>
<path fill-rule="evenodd" clip-rule="evenodd" d="M6.93741 6.3L6.93741 8.55C6.93741 8.76347 6.97612 8.96825 7.04716 9.15824L7.87487 8.3636L7.87487 6.3C7.87487 5.80294 8.29458 5.4 8.81233 5.4C9.33007 5.4 9.74978 5.80294 9.74978 6.3V6.5636L10.5979 5.74938C10.3556 5.02459 9.64777 4.5 8.81233 4.5C7.77684 4.5 6.93741 5.30589 6.93741 6.3ZM5.99996 8.55C5.99996 9.01619 6.12302 9.45478 6.33967 9.83747L5.65573 10.4941C5.28028 9.93336 5.0625 9.2661 5.0625 8.55C5.0625 8.30147 5.27236 8.1 5.53123 8.1C5.7901 8.1 5.99996 8.30147 5.99996 8.55ZM7.02306 11.7145L6.23802 12.4682C6.05497 12.6439 5.75819 12.6439 5.57514 12.4682C5.39209 12.2925 5.39209 12.0075 5.57514 11.8318L12.1373 5.5318C12.3204 5.35607 12.6172 5.35607 12.8002 5.5318C12.9833 5.70754 12.9833 5.99246 12.8002 6.1682L10.6872 8.19675V8.55C10.6872 9.54411 9.84781 10.35 8.81233 10.35C8.69706 10.35 8.58421 10.34 8.47469 10.3209L7.72487 11.0408C8.0594 11.1755 8.4268 11.25 8.81233 11.25C10.3656 11.25 11.6247 10.0412 11.6247 8.55C11.6247 8.30147 11.8346 8.1 12.0934 8.1C12.3523 8.1 12.5622 8.30147 12.5622 8.55C12.5622 10.3858 11.1308 11.9007 9.28105 12.1221V13.05C9.28105 13.2985 9.0712 13.5 8.81233 13.5C8.55345 13.5 8.3436 13.2985 8.3436 13.05V12.1221C7.87038 12.0655 7.42455 11.9242 7.02306 11.7145Z" fill="white"/>
</svg>
