<svg xmlns="http://www.w3.org/2000/svg">
    <path fill-rule="evenodd" clip-rule="evenodd"
          d="M9.50003 2C9.05355 2 8.66116 2.29598 8.53851 2.72528L7.7781 5.38671L5.14145 5.01005C4.69383 4.94611 4.259 5.19048 4.08088 5.60608L2.58088 9.10608C2.41981 9.48192 2.50378 9.91797 2.79292 10.2071L4.58582 12L2.79292 13.7929C2.47405 14.1118 2.40805 14.6046 2.63179 14.9961L4.63179 18.4961C4.83947 18.8596 5.25153 19.0552 5.66443 18.9864L7.78378 18.6332L8.53851 21.2747C8.66116 21.704 9.05355 22 9.50003 22H14.5C14.9465 22 15.3389 21.704 15.4616 21.2747L16.2163 18.6332L18.3356 18.9864C18.7485 19.0552 19.1606 18.8596 19.3683 18.4961L21.3683 14.9961C21.592 14.6046 21.526 14.1118 21.2071 13.7929L19.4142 12L21.2071 10.2071C21.4963 9.91797 21.5802 9.48192 21.4192 9.10608L19.9192 5.60608C19.7411 5.19048 19.3062 4.94611 18.8586 5.01005L16.222 5.38671L15.4616 2.72528C15.3389 2.29598 14.9465 2 14.5 2H9.50003ZM9.46155 6.77472L10.2543 4H13.7457L14.5385 6.77472C14.6758 7.25523 15.1467 7.56062 15.6415 7.48995L18.3828 7.09833L19.3142 9.27163L17.2929 11.2929C16.9024 11.6834 16.9024 12.3166 17.2929 12.7071L19.2528 14.667L17.9774 16.8991L15.6644 16.5136C15.1628 16.43 14.6782 16.7363 14.5385 17.2253L13.7457 20H10.2543L9.46155 17.2253C9.32183 16.7363 8.83731 16.43 8.33563 16.5136L6.02269 16.8991L4.74722 14.667L6.70714 12.7071C7.09766 12.3166 7.09766 11.6834 6.70714 11.2929L4.68587 9.27163L5.61728 7.09833L8.35861 7.48995C8.85332 7.56062 9.32426 7.25523 9.46155 6.77472ZM12 14C10.8955 14 10 13.1046 10 12C10 10.8954 10.8955 10 12 10C13.1046 10 14 10.8954 14 12C14 13.1046 13.1046 14 12 14ZM8.00003 12C8.00003 9.79086 9.79089 8 12 8C14.2092 8 16 9.79086 16 12C16 14.2091 14.2092 16 12 16C9.79089 16 8.00003 14.2091 8.00003 12Z"
         />
</svg>
