<svg  xmlns="http://www.w3.org/2000/svg">
<path fill-rule="evenodd" clip-rule="evenodd"
      d="M1 6.66667V20.6667C1 23.244 3.01472 25.3333 5.5 25.3333L26.5 25.3333C28.9853 25.3333 31 23.244 31 20.6667V6.66667C31 4.08934 28.9853 2 26.5 2H5.5C3.01472 2 1 4.08934 1 6.66667ZM5.5 22.2222C4.67157 22.2222 4 21.5258 4 20.6667L4 6.66667C4 5.80756 4.67157 5.11111 5.5 5.11111L26.5 5.11111C27.3284 5.11111 28 5.80756 28 6.66667V20.6667C28 21.5258 27.3284 22.2222 26.5 22.2222L5.5 22.2222ZM7 26.8889C6.17157 26.8889 5.5 27.5853 5.5 28.4444C5.5 29.3036 6.17157 30 7 30H25C25.8284 30 26.5 29.3036 26.5 28.4444C26.5 27.5853 25.8284 26.8889 25 26.8889H7Z" />
<path fill-rule="evenodd" clip-rule="evenodd" d="M18.8504 12.4022C19.0474 12.2087 19.0502 11.8922 18.8567 11.6952L16.3567 9.14971C16.2627 9.05398 16.1342 9.00006 16 9.00006C15.8658 9.00006 15.7373 9.05398 15.6433 9.14971L13.1433 11.6952C12.9498 11.8922 12.9526 12.2087 13.1496 12.4022C13.3467 12.5957 13.6632 12.5929 13.8567 12.3959L15.5 10.7227L15.5 18.5001C15.5 18.7762 15.7239 19.0001 16 19.0001C16.2761 19.0001 16.5 18.7762 16.5 18.5001L16.5 10.7227L18.1433 12.3959C18.3368 12.5929 18.6533 12.5957 18.8504 12.4022Z"/>
</svg>
