<svg xmlns="http://www.w3.org/2000/svg">
<path fill-rule="evenodd" clip-rule="evenodd" d="M20.6668 18C19.194 18 18.0001 19.1939 18.0001 20.6667V22V26C18.0001 27.4728 19.194 28.6667 20.6668 28.6667H26.0001C27.4729 28.6667 28.6668 27.4728 28.6668 26V20.6667C28.6668 19.1939 27.4729 18 26.0001 18H20.6668ZM20.6668 20.6667H26.0001V26H20.6668V22V20.6667ZM34.0001 18C32.5274 18 31.3335 19.1939 31.3335 20.6667V22V26C31.3335 27.4728 32.5274 28.6667 34.0001 28.6667H39.3335C40.8062 28.6667 42.0001 27.4728 42.0001 26V20.6667C42.0001 19.1939 40.8062 18 39.3335 18H34.0001ZM34.0001 20.6667H39.3335V26H34.0001V22V20.6667ZM31.3335 34C31.3335 32.5272 32.5274 31.3333 34.0001 31.3333H39.3335C40.8062 31.3333 42.0001 32.5272 42.0001 34V39.3333C42.0001 40.8061 40.8062 42 39.3335 42H34.0001C32.5274 42 31.3335 40.8061 31.3335 39.3333V35.3333V34ZM39.3335 34H34.0001V35.3333V39.3333H39.3335V34ZM20.6668 31.3333C19.194 31.3333 18.0001 32.5272 18.0001 34V35.3333V39.3333C18.0001 40.8061 19.194 42 20.6668 42H26.0001C27.4729 42 28.6668 40.8061 28.6668 39.3333V34C28.6668 32.5272 27.4729 31.3333 26.0001 31.3333H20.6668ZM20.6668 34H26.0001V39.3333H20.6668V35.3333V34Z"/>
</svg>
