<svg width="18" height="18" viewBox="0 0 18 18" fill="none" xmlns="http://www.w3.org/2000/svg">
<path fill-rule="evenodd" clip-rule="evenodd" d="M11.7 2.25C10.9544 2.25 10.35 2.85442 10.35 3.6V5.625H7.65C6.90442 5.625 6.3 6.22942 6.3 6.975V9H3.6C2.85442 9 2.25 9.60442 2.25 10.35V14.4C2.25 15.1456 2.85442 15.75 3.6 15.75H6.975H11.025H14.4C15.1456 15.75 15.75 15.1456 15.75 14.4V3.6C15.75 2.85442 15.1456 2.25 14.4 2.25H11.7ZM10.35 14.4V6.975H7.65V10.35V14.4H10.35ZM11.7 14.4H14.4V3.6H11.7V6.975V14.4ZM6.3 10.35V14.4H3.6V10.35H6.3Z" fill="white"/>
</svg>
